<?xml version="1.0" standalone="no"?>
<!DOCTYPE svg PUBLIC "-//W3C//DTD SVG 20010904//EN"
 "http://www.w3.org/TR/2001/REC-SVG-20010904/DTD/svg10.dtd">
<svg version="1.0" xmlns="http://www.w3.org/2000/svg"
 width="512.000000pt" height="512.000000pt" viewBox="0 0 512.000000 512.000000"
 preserveAspectRatio="xMidYMid meet">
<metadata>
Created by potrace 1.14, written by Peter Selinger 2001-2017
</metadata>
<g transform="translate(0.000000,512.000000) scale(0.100000,-0.100000)"
fill="#000000" stroke="none">
<path d="M2350 5110 c-323 -29 -629 -115 -915 -255 -768 -376 -1286 -1096
-1411 -1960 -24 -165 -24 -505 0 -670 40 -281 123 -550 241 -790 379 -770
1096 -1286 1960 -1411 165 -24 505 -24 670 0 393 57 760 194 1075 404 620 412
1018 1047 1126 1797 24 165 24 505 0 670 -67 467 -254 906 -536 1260 -400 502
-992 841 -1634 936 -151 22 -438 32 -576 19z m-986 -1565 c104 -22 188 -66
260 -135 106 -101 160 -236 154 -378 l-3 -67 -95 0 -95 0 -7 83 c-12 144 -78
245 -197 301 -50 23 -68 26 -171 26 -107 0 -119 -2 -170 -28 -94 -49 -146
-110 -175 -210 -14 -48 -15 -124 -13 -603 3 -503 5 -552 21 -589 66 -147 203
-225 374 -212 197 15 333 161 333 358 0 73 3 75 113 63 l82 -9 3 -61 c11 -234
-152 -448 -388 -509 -80 -21 -253 -24 -330 -6 -147 35 -284 136 -347 256 -62
119 -63 127 -63 728 0 365 4 564 11 599 43 202 218 366 429 401 59 10 210 6
274 -8z m2714 -21 c184 -37 308 -144 375 -322 21 -55 21 -73 25 -602 3 -602 1
-640 -54 -748 -60 -122 -134 -189 -261 -240 l-68 -27 -359 -3 c-289 -3 -361
-1 -367 10 -13 20 -11 1905 1 1929 10 18 24 19 321 19 243 0 326 -3 387 -16z
m-1860 -532 c6 -5 77 -249 157 -543 80 -294 149 -543 154 -554 7 -16 10 -17
15 -5 3 8 71 258 150 554 80 297 151 543 158 548 15 9 143 11 176 2 14 -4 22
-14 22 -28 0 -21 -381 -1321 -400 -1363 -9 -22 -15 -23 -114 -23 l-105 0 -30
98 c-103 334 -381 1279 -381 1293 0 10 6 20 13 22 20 9 171 7 185 -1z"/>
<path d="M3570 2555 l0 -805 183 0 c276 0 341 16 424 102 52 53 80 114 93 204
13 89 13 918 0 1007 -15 99 -44 160 -105 215 -81 74 -116 82 -376 82 l-219 0
0 -805z"/>
</g>
</svg>
